<?xml version="1.0" standalone="no"?>
<!DOCTYPE svg PUBLIC "-//W3C//DTD SVG 20010904//EN"
 "http://www.w3.org/TR/2001/REC-SVG-20010904/DTD/svg10.dtd">
<svg version="1.0" xmlns="http://www.w3.org/2000/svg"
 width="2000.000000pt" height="2000.000000pt" viewBox="0 0 2000.000000 2000.000000"
 preserveAspectRatio="xMidYMid meet">
<metadata>
Created by potrace 1.11, written by Peter Selinger 2001-2013
</metadata>
<g transform="translate(0.000000,2000.000000) scale(0.100000,-0.100000)"
fill="#000000" stroke="none">
<path d="M9505 19989 c-965 -49 -1900 -232 -2815 -551 -668 -233 -1387 -580
-2009 -969 -1325 -831 -2480 -2015 -3278 -3359 -293 -494 -570 -1070 -763
-1585 -1129 -3007 -750 -6376 1015 -9035 527 -793 1130 -1477 1840 -2085 2136
-1832 4927 -2672 7735 -2330 2855 349 5431 1927 7054 4322 1356 2002 1936
4415 1641 6833 -302 2472 -1521 4735 -3431 6372 -970 833 -2117 1482 -3332
1887 -864 289 -1756 454 -2701 501 -232 11 -719 11 -956 -1z m539 -272 c117
-214 313 -432 558 -619 181 -138 279 -257 319 -390 17 -55 21 -88 17 -162 -3
-83 -8 -102 -41 -169 -127 -257 -453 -342 -726 -190 l-63 35 7 -33 c35 -176
135 -356 242 -434 37 -27 42 -34 42 -72 l1 -43 -400 0 -400 0 0 43 c1 38 5 45
45 75 106 77 206 257 240 431 l7 33 -63 -35 c-222 -124 -484 -94 -644 74 -82
86 -118 170 -123 286 -5 113 18 198 79 293 57 90 102 135 269 268 168 134 320
283 406 397 58 76 155 230 169 268 4 9 10 17 14 17 3 0 24 -33 45 -73z m516
-2336 c972 -83 1825 -314 2665 -720 1464 -709 2669 -1899 3398 -3357 534
-1067 798 -2246 774 -3444 -9 -417 -37 -721 -103 -1109 -392 -2315 -1880
-4318 -3990 -5374 -1067 -534 -2246 -798 -3444 -774 -417 9 -721 37 -1109 103
-2315 392 -4318 1880 -5374 3990 -534 1067 -798 2246 -774 3444 9 417 37 721
103 1109 381 2248 1793 4202 3822 5286 898 480 1924 776 2927 844 88 6 183 13
210 15 97 7 772 -3 895 -13z m-7137 -596 c111 -29 197 -85 268 -174 23 -29 49
-51 60 -51 10 0 51 33 91 73 103 103 204 147 343 147 134 0 257 -53 349 -149
271 -284 113 -750 -275 -812 -97 -16 -102 -20 -97 -89 6 -74 38 -136 109 -214
98 -107 219 -172 328 -177 28 -2 50 -6 49 -11 -2 -4 -70 -78 -153 -165 l-150
-157 -7 61 c-11 101 -56 184 -150 278 -53 52 -104 92 -139 109 -60 29 -155 43
-178 28 -7 -6 -19 -47 -26 -97 -51 -343 -399 -529 -705 -378 -30 15 -83 55
-116 88 -95 94 -144 209 -144 340 0 138 46 250 143 347 31 32 57 67 57 78 0
12 -20 34 -52 59 -90 66 -130 119 -171 221 -107 269 54 577 336 646 72 17 162
17 230 -1z m13515 -40 c157 -37 284 -149 346 -305 11 -27 20 -84 23 -141 5
-81 2 -107 -16 -165 -29 -91 -99 -194 -164 -241 -57 -40 -77 -61 -77 -79 0 -6
27 -39 61 -73 138 -140 179 -337 108 -525 -34 -92 -133 -202 -220 -247 -188
-96 -404 -66 -559 77 -93 86 -139 183 -155 327 -5 43 -11 60 -27 68 -31 17
-110 5 -171 -25 -67 -33 -183 -138 -227 -206 -37 -58 -70 -156 -70 -208 l0
-37 -152 159 c-84 87 -154 162 -156 166 -1 4 28 10 65 12 103 8 188 53 290
153 58 57 90 99 109 139 29 63 36 134 16 158 -7 9 -45 21 -86 27 -99 16 -180
57 -257 129 -105 98 -153 211 -152 357 2 189 101 343 276 430 70 34 87 39 176
43 82 4 111 1 169 -17 85 -25 179 -86 234 -152 23 -27 48 -49 56 -49 8 0 49
35 91 79 134 138 293 187 469 146z m-15276 -5848 c260 -128 343 -455 186 -735
l-30 -53 29 6 c204 46 350 131 450 262 21 27 32 33 64 33 l39 0 0 -405 0 -405
-35 0 c-30 0 -45 11 -112 78 -105 106 -246 180 -395 207 l-37 7 40 -78 c48
-98 69 -177 69 -269 0 -194 -107 -367 -277 -448 -59 -28 -81 -32 -163 -35
-206 -8 -340 75 -548 337 -198 249 -370 407 -575 527 -51 29 -99 57 -106 62
-11 6 11 24 85 67 226 132 412 306 609 565 122 161 250 265 379 306 26 9 81
13 147 11 99 -2 109 -4 181 -40z m16991 28 c139 -42 248 -129 397 -316 125
-156 267 -305 375 -391 76 -61 215 -151 283 -183 23 -11 42 -23 42 -27 0 -3
-33 -24 -72 -46 -200 -110 -423 -312 -606 -548 -130 -169 -217 -250 -320 -302
-102 -51 -194 -68 -283 -52 -209 37 -361 201 -391 421 -14 109 5 210 61 324
22 44 39 80 38 81 -10 9 -172 -46 -244 -82 -94 -47 -205 -137 -232 -188 -12
-22 -21 -26 -58 -26 l-43 0 0 405 0 405 38 0 c33 0 42 -5 73 -47 80 -107 271
-214 428 -239 l42 -7 -29 50 c-72 122 -100 281 -72 412 33 156 153 295 303
348 74 27 197 30 270 8z m-15360 -5730 c127 -39 234 -134 295 -262 28 -61 35
-88 39 -160 7 -117 16 -127 104 -121 86 7 167 49 263 139 83 77 131 158 150
250 l12 61 143 -169 144 -168 -74 -6 c-89 -8 -142 -28 -231 -86 -118 -77 -201
-187 -214 -284 -8 -56 9 -72 91 -88 169 -32 326 -179 370 -346 45 -174 -9
-361 -137 -480 -209 -194 -532 -171 -711 51 -26 32 -56 60 -67 62 -13 2 -37
-16 -75 -56 -147 -157 -387 -198 -580 -100 -239 122 -331 434 -197 668 35 62
107 137 170 177 35 23 52 40 52 54 0 12 -22 46 -50 75 -219 240 -146 623 145
761 39 18 91 38 116 43 57 12 180 4 242 -15z m13596 -126 c138 -24 278 -124
343 -245 101 -187 65 -424 -88 -575 -29 -30 -54 -62 -54 -71 0 -9 16 -30 36
-45 180 -137 249 -285 224 -478 -34 -269 -296 -463 -560 -416 -124 22 -224 84
-317 194 -17 20 -36 37 -42 37 -5 0 -43 -34 -84 -75 -115 -116 -233 -162 -387
-153 -115 8 -206 47 -294 129 -106 100 -156 212 -156 354 0 135 43 238 140
336 77 78 165 125 266 142 95 17 97 19 92 86 -6 82 -41 145 -128 231 -95 95
-194 147 -294 157 -37 3 -65 9 -64 13 2 5 68 78 148 165 l145 156 7 -58 c15
-112 100 -245 213 -330 78 -59 138 -85 201 -86 67 -2 84 13 84 72 0 183 136
374 310 436 97 35 160 41 259 24z m-6489 -2743 c0 -30 -11 -46 -84 -118 -67
-67 -92 -101 -124 -169 -36 -74 -82 -212 -82 -245 0 -6 38 8 84 31 94 47 168
65 266 65 189 0 363 -109 443 -277 28 -59 32 -81 35 -163 8 -206 -75 -340
-337 -548 -247 -196 -408 -371 -527 -575 -29 -51 -57 -99 -62 -107 -7 -11 -15
-2 -37 35 -151 266 -322 455 -611 672 -118 89 -206 190 -257 291 l-42 85 0
121 c0 116 1 124 32 189 22 46 54 89 95 131 167 166 420 191 645 64 l53 -29
-7 33 c-33 171 -127 338 -245 433 -42 34 -48 43 -48 77 l0 38 405 0 405 0 0
-34z"/>
<path d="M5450 10055 l0 -1775 365 0 365 0 0 462 c0 372 -7 618 -35 1262 -20
440 -35 822 -33 848 3 43 34 -39 322 -834 175 -486 389 -1075 474 -1310 l154
-428 252 0 251 0 475 1313 c362 999 476 1304 478 1277 2 -19 -13 -398 -33
-841 -28 -652 -35 -896 -35 -1278 l0 -471 415 0 415 0 0 625 0 625 349 0 c191
0 406 5 477 10 515 42 875 251 1058 615 l45 90 1 -982 0 -983 365 0 365 0 0
1480 0 1480 135 0 135 0 0 -1481 0 -1480 658 4 c736 4 756 6 986 81 240 79
448 208 619 385 256 265 405 604 447 1010 13 133 13 459 0 592 -42 411 -205
772 -466 1033 -206 206 -483 352 -791 418 l-108 23 -2667 3 -2666 2 -20 -57
c-54 -157 -883 -2508 -886 -2510 -1 -1 -207 575 -457 1282 l-454 1285 -477 0
-478 0 0 -1775z m4663 1166 c145 -38 244 -103 317 -211 69 -101 100 -212 100
-355 0 -275 -141 -456 -398 -510 -59 -12 -152 -15 -463 -15 l-389 0 0 555 0
555 378 0 c343 0 386 -2 455 -19z m1097 -68 l-1 -88 -39 84 c-22 46 -40 85
-40 87 0 2 18 4 40 4 l40 0 0 -87z m2375 53 c328 -100 512 -337 582 -751 26
-159 26 -631 0 -790 -70 -417 -272 -675 -602 -766 -71 -20 -111 -23 -347 -27
l-268 -4 0 1187 0 1187 273 -4 c261 -4 275 -6 362 -32z"/>
</g>
</svg>
